<?xml version="1.0" encoding="UTF-8"?>
<svg width="146px" height="34px" viewBox="0 0 146 34" version="1.1" xmlns="http://www.w3.org/2000/svg" xmlns:xlink="http://www.w3.org/1999/xlink">
    <title>Group 5</title>
    <g id="Page-1" stroke="none" stroke-width="1" fill="none" fill-rule="evenodd">
        <g id="Group-5">
            <g id="Group">
                <g id="Adrian_logo" fill="#44D7B6">
                    <ellipse id="Oval" cx="16.9279695" cy="17" rx="16.9279695" ry="17"></ellipse>
                </g>
                <path d="M22.7186769,23.7849194 C23.1418761,23.7849194 23.5033588,23.6343985 23.8031249,23.3333569 C24.102891,23.0323152 24.2527741,22.7011694 24.2527741,22.3399194 C24.2527741,21.992836 24.0940744,21.4367944 23.776675,20.6717944 L23.776675,20.6717944 L19.7245423,10.6205444 C19.5341026,10.1176277 19.3771662,9.71564852 19.2537331,9.41460685 C19.1303,9.11356519 18.9786536,8.83200269 18.7987939,8.56991935 C18.6189342,8.30783602 18.382648,8.09356519 18.0899352,7.92710685 C17.7972224,7.76064852 17.432213,7.67741935 16.9949072,7.67741935 C16.5646546,7.67741935 16.2031719,7.76064852 15.9104591,7.92710685 C15.6177463,8.09356519 15.3814601,8.31137769 15.2016004,8.58054435 C15.0217407,8.84971102 14.852461,9.18794019 14.6937613,9.59523185 C14.5350616,10.0025235 14.3992852,10.3513777 14.286432,10.6417944 L14.286432,10.6417944 L10.3189392,20.7567944 C10.1567128,21.1605444 10.040333,21.4757527 9.96979981,21.7024194 C9.8992666,21.929086 9.864,22.1486694 9.864,22.3611694 C9.864,22.7295027 10.0156464,23.0588777 10.3189392,23.3492944 C10.622232,23.639711 10.9713713,23.7849194 11.3663573,23.7849194 C11.8318765,23.7849194 12.1669092,23.6485652 12.3714555,23.3758569 C12.5760018,23.1031485 12.822868,22.577211 13.1120542,21.7980444 L13.1120542,21.7980444 L13.8526528,19.8005444 L20.1583215,19.8005444 L20.8989201,21.7555444 C20.9976666,21.9963777 21.1158098,22.2743985 21.2533495,22.5896069 C21.3908893,22.9048152 21.5196124,23.1385652 21.6395188,23.2908569 C21.7594253,23.4431485 21.907545,23.5635652 22.083878,23.6521069 C22.260211,23.7406485 22.4718106,23.7849194 22.7186769,23.7849194 Z M19.311923,17.4311694 L14.6778913,17.4311694 L16.9737472,11.0030444 L19.311923,17.4311694 Z" id="A" fill="#FFFFFF" fill-rule="nonzero"></path>
            </g>
            <text id="Adrian-Rios" font-family="AppleGothic" font-size="21" font-weight="normal" fill="#FFFFFF">
                <tspan x="40" y="23">Adrian</tspan>
                <tspan x="100.921" y="23" font-family="STHeiti" font-weight="400"> </tspan>
                <tspan x="106.171" y="23" font-family="STXihei, STHeiti" font-weight="300">Rios</tspan>
            </text>
        </g>
    </g>
</svg>